<svg xmlns="http://www.w3.org/2000/svg" xmlns:xlink="http://www.w3.org/1999/xlink" width="1024" zoomAndPan="magnify" viewBox="0 0 768 767.999994" height="1024" preserveAspectRatio="xMidYMid meet" version="1.0"><defs><clipPath id="15423c72cc"><path d="M 4.972656 63.460938 L 734 63.460938 L 734 267 L 4.972656 267 Z M 4.972656 63.460938 " clip-rule="nonzero"/></clipPath></defs><path fill="#ff3131" d="M 93.566406 259.300781 C 94.238281 259.300781 94.90625 259.300781 95.597656 259.300781 C 96.753906 259.296875 96.753906 259.296875 97.933594 259.296875 C 99.21875 259.296875 99.21875 259.296875 100.53125 259.300781 C 101.433594 259.300781 102.335938 259.300781 103.265625 259.300781 C 105.78125 259.300781 108.296875 259.300781 110.8125 259.304688 C 113.523438 259.308594 116.230469 259.308594 118.941406 259.308594 C 123.636719 259.308594 128.335938 259.308594 133.03125 259.3125 C 139.824219 259.320312 146.617188 259.324219 153.40625 259.324219 C 164.425781 259.328125 175.445312 259.332031 186.460938 259.339844 C 197.167969 259.347656 207.871094 259.351562 218.578125 259.355469 C 219.238281 259.355469 219.898438 259.355469 220.578125 259.355469 C 223.882812 259.359375 227.191406 259.359375 230.5 259.359375 C 257.960938 259.371094 285.421875 259.382812 312.882812 259.402344 C 312.882812 263.386719 311.558594 265.675781 309.804688 269.03125 C 301.132812 286.246094 294.78125 305.097656 291.339844 324.359375 C 291.203125 325.101562 291.058594 325.84375 290.914062 326.609375 C 286.320312 351.714844 286.621094 378.425781 291.339844 403.472656 C 291.460938 404.140625 291.578125 404.808594 291.703125 405.496094 C 297.296875 436.421875 310.792969 465.6875 329.042969 490.082031 C 329.363281 490.515625 329.683594 490.949219 330.015625 491.394531 C 338.128906 502.296875 347.203125 512.421875 357.511719 520.894531 C 358.148438 521.425781 358.148438 521.425781 358.796875 521.960938 C 369.757812 531.011719 381.1875 538.71875 393.675781 545.046875 C 394.226562 545.328125 394.777344 545.609375 395.34375 545.898438 C 419.707031 558.292969 445.847656 564.382812 472.738281 564.410156 C 473.332031 564.410156 473.921875 564.410156 474.535156 564.414062 C 484.667969 564.402344 494.492188 563.667969 504.476562 561.703125 C 505.09375 561.589844 505.710938 561.472656 506.347656 561.351562 C 530.988281 556.628906 555.40625 546.335938 576.035156 530.890625 C 577.28125 529.972656 577.28125 529.972656 578.554688 529.035156 C 585.28125 524.011719 591.480469 518.449219 597.582031 512.566406 C 598.003906 512.164062 598.425781 511.757812 598.863281 511.339844 C 603.636719 506.753906 608.105469 502.0625 612.199219 496.746094 C 612.800781 496.019531 613.40625 495.292969 614.027344 494.542969 C 621.519531 485.429688 627.984375 475.210938 633.4375 464.539062 C 633.785156 463.863281 634.132812 463.191406 634.488281 462.496094 C 634.75 461.980469 635.011719 461.46875 635.285156 460.9375 C 634.691406 460.9375 634.101562 460.9375 633.496094 460.9375 C 619.15625 460.957031 604.816406 460.96875 590.476562 460.980469 C 583.542969 460.984375 576.609375 460.988281 569.675781 461 C 563.636719 461.007812 557.59375 461.011719 551.550781 461.015625 C 548.351562 461.015625 545.148438 461.015625 541.949219 461.023438 C 538.941406 461.03125 535.929688 461.03125 532.921875 461.03125 C 531.8125 461.03125 530.707031 461.03125 529.597656 461.035156 C 528.09375 461.039062 526.585938 461.039062 525.082031 461.035156 C 524.238281 461.039062 523.390625 461.039062 522.519531 461.039062 C 520.636719 460.9375 520.636719 460.9375 519.863281 460.101562 C 519.789062 458.839844 519.769531 457.574219 519.769531 456.308594 C 519.765625 455.488281 519.765625 454.667969 519.761719 453.824219 C 519.765625 452.917969 519.765625 452.011719 519.765625 451.078125 C 519.765625 450.128906 519.765625 449.179688 519.761719 448.203125 C 519.757812 445.046875 519.761719 441.890625 519.765625 438.738281 C 519.765625 436.554688 519.761719 434.375 519.761719 432.195312 C 519.757812 427.613281 519.761719 423.035156 519.765625 418.457031 C 519.769531 413.15625 519.769531 407.855469 519.765625 402.554688 C 519.757812 397.464844 519.761719 392.375 519.765625 387.285156 C 519.765625 385.117188 519.761719 382.945312 519.761719 380.773438 C 519.757812 377.746094 519.761719 374.722656 519.765625 371.695312 C 519.765625 370.785156 519.765625 369.878906 519.761719 368.945312 C 519.765625 368.125 519.765625 367.304688 519.769531 366.460938 C 519.769531 365.746094 519.769531 365.027344 519.769531 364.289062 C 519.863281 362.667969 519.863281 362.667969 520.636719 361.832031 C 521.855469 361.753906 523.078125 361.730469 524.296875 361.730469 C 525.09375 361.726562 525.890625 361.726562 526.710938 361.722656 C 527.601562 361.726562 528.484375 361.726562 529.398438 361.726562 C 530.332031 361.726562 531.261719 361.726562 532.226562 361.726562 C 534.828125 361.722656 537.429688 361.722656 540.035156 361.726562 C 542.835938 361.726562 545.636719 361.726562 548.4375 361.722656 C 553.933594 361.71875 559.425781 361.71875 564.921875 361.722656 C 569.382812 361.722656 573.847656 361.726562 578.308594 361.722656 C 578.941406 361.722656 579.578125 361.722656 580.230469 361.722656 C 581.515625 361.722656 582.804688 361.722656 584.09375 361.722656 C 596.179688 361.71875 608.269531 361.722656 620.355469 361.726562 C 630.738281 361.730469 641.121094 361.730469 651.507812 361.726562 C 663.550781 361.722656 675.59375 361.71875 687.640625 361.722656 C 688.921875 361.722656 690.203125 361.722656 691.488281 361.722656 C 692.433594 361.722656 692.433594 361.722656 693.402344 361.722656 C 697.859375 361.726562 702.320312 361.722656 706.78125 361.71875 C 712.210938 361.71875 717.644531 361.71875 723.074219 361.722656 C 725.847656 361.726562 728.621094 361.726562 731.398438 361.726562 C 734.394531 361.71875 737.398438 361.726562 740.398438 361.726562 C 741.285156 361.726562 742.171875 361.726562 743.082031 361.722656 C 743.878906 361.726562 744.675781 361.726562 745.5 361.730469 C 746.191406 361.730469 746.886719 361.730469 747.601562 361.730469 C 749.160156 361.832031 749.160156 361.832031 749.929688 362.667969 C 750.15625 366.40625 750.117188 370.164062 750.121094 373.910156 C 750.121094 374.757812 750.121094 374.757812 750.121094 375.617188 C 750.109375 386.707031 749.234375 397.519531 747.621094 408.472656 C 747.425781 409.824219 747.425781 409.824219 747.222656 411.207031 C 740.6875 454.65625 725.828125 497.351562 702.222656 533.386719 C 701.707031 534.183594 701.1875 534.976562 700.65625 535.796875 C 699.148438 538.066406 697.617188 540.3125 696.070312 542.546875 C 695.484375 543.394531 694.902344 544.238281 694.300781 545.109375 C 680.785156 564.507812 665.25 582.476562 647.59375 597.511719 C 646.574219 598.402344 645.550781 599.289062 644.535156 600.179688 C 606.121094 633.40625 559.253906 654.238281 510.679688 661.53125 C 510.105469 661.617188 509.53125 661.707031 508.941406 661.792969 C 497.242188 663.527344 485.609375 664.3125 473.796875 664.292969 C 473.246094 664.292969 472.699219 664.292969 472.132812 664.289062 C 461.824219 664.261719 451.628906 663.742188 441.382812 662.46875 C 440.582031 662.371094 439.78125 662.273438 438.953125 662.171875 C 414.386719 659.007812 390.292969 652.078125 367.515625 641.652344 C 367.023438 641.425781 366.535156 641.203125 366.03125 640.972656 C 358.15625 637.378906 350.46875 633.441406 342.894531 629.15625 C 342.367188 628.863281 341.84375 628.570312 341.304688 628.265625 C 333.734375 623.984375 326.542969 619.175781 319.425781 614.0625 C 318.664062 613.515625 317.898438 612.972656 317.113281 612.40625 C 312.78125 609.25 308.636719 605.929688 304.589844 602.351562 C 302.894531 600.855469 301.164062 599.410156 299.417969 597.980469 C 296.242188 595.320312 293.265625 592.460938 290.304688 589.523438 C 288.691406 587.941406 287.058594 586.394531 285.40625 584.859375 C 281.695312 581.355469 278.222656 577.609375 274.75 573.832031 C 274.125 573.160156 273.5 572.484375 272.855469 571.792969 C 269.113281 567.734375 265.523438 563.585938 262.101562 559.207031 C 261.703125 558.695312 261.304688 558.1875 260.898438 557.664062 C 251.109375 545.039062 242.582031 531.640625 234.609375 517.613281 C 233.796875 516.1875 232.976562 514.769531 232.152344 513.351562 C 223.804688 498.53125 217.695312 482.144531 212.085938 465.933594 C 211.675781 464.746094 211.675781 464.746094 211.253906 463.539062 C 200.988281 433.511719 195.660156 400.582031 195.882812 368.601562 C 195.882812 367.621094 195.886719 366.640625 195.890625 365.632812 C 195.902344 363.253906 195.914062 360.878906 195.929688 358.503906 C 194.964844 358.527344 194.964844 358.527344 193.984375 358.558594 C 164.347656 359.253906 140.011719 352.796875 117.730469 330.492188 C 101.964844 313.457031 91.382812 289.25 91.140625 265.023438 C 91.171875 259.464844 91.171875 259.464844 93.566406 259.300781 Z M 93.566406 259.300781 " fill-opacity="1" fill-rule="nonzero"/><g clip-path="url(#15423c72cc)"><path fill="#ff3131" d="M 9.011719 63.574219 C 9.691406 63.574219 10.375 63.570312 11.078125 63.566406 C 12.214844 63.570312 12.214844 63.570312 13.375 63.574219 C 14.179688 63.570312 14.980469 63.570312 15.804688 63.570312 C 18.527344 63.566406 21.25 63.566406 23.972656 63.570312 C 25.929688 63.566406 27.886719 63.566406 29.84375 63.5625 C 34.121094 63.558594 38.394531 63.558594 42.667969 63.558594 C 49.027344 63.558594 55.386719 63.554688 61.742188 63.550781 C 73.761719 63.542969 85.78125 63.542969 97.800781 63.539062 C 107.089844 63.539062 116.378906 63.539062 125.667969 63.535156 C 128.339844 63.535156 131.011719 63.535156 133.683594 63.535156 C 134.347656 63.535156 135.011719 63.535156 135.699219 63.535156 C 154.398438 63.527344 173.101562 63.523438 191.804688 63.523438 C 192.507812 63.523438 193.214844 63.523438 193.941406 63.523438 C 197.519531 63.523438 201.097656 63.527344 204.675781 63.527344 C 205.386719 63.527344 206.097656 63.527344 206.828125 63.527344 C 208.265625 63.527344 209.703125 63.527344 211.140625 63.527344 C 233.453125 63.527344 255.769531 63.519531 278.085938 63.507812 C 303.15625 63.496094 328.226562 63.488281 353.296875 63.488281 C 355.976562 63.488281 358.65625 63.488281 361.332031 63.488281 C 361.992188 63.488281 362.652344 63.488281 363.332031 63.488281 C 373.914062 63.488281 384.496094 63.484375 395.078125 63.476562 C 405.738281 63.46875 416.394531 63.46875 427.054688 63.476562 C 433.375 63.476562 439.695312 63.476562 446.011719 63.46875 C 450.75 63.460938 455.492188 63.464844 460.230469 63.472656 C 462.132812 63.472656 464.035156 63.472656 465.9375 63.46875 C 482.816406 63.429688 499.609375 64.34375 516.304688 67.167969 C 516.828125 67.253906 517.351562 67.339844 517.890625 67.429688 C 545.488281 72.085938 572.4375 81.570312 597.242188 95.507812 C 599.578125 96.820312 601.9375 98.054688 604.3125 99.28125 C 624.261719 110.121094 641.964844 124.878906 658.652344 140.777344 C 659.757812 141.824219 660.878906 142.855469 661.996094 143.882812 C 662.558594 144.402344 663.121094 144.917969 663.703125 145.449219 C 664.402344 146.085938 664.402344 146.085938 665.117188 146.734375 C 666.058594 147.789062 666.058594 147.789062 666.058594 149.457031 C 666.75 149.792969 666.75 149.792969 667.453125 150.132812 C 669.136719 151.121094 670.222656 152.035156 671.445312 153.621094 C 671.445312 154.171875 671.445312 154.71875 671.445312 155.285156 C 671.90625 155.507812 672.367188 155.726562 672.84375 155.953125 C 674.609375 157.003906 675.5 157.941406 676.78125 159.605469 C 678.582031 161.914062 680.390625 164.214844 682.238281 166.480469 C 698.226562 186.125 711.765625 208.265625 722.246094 231.875 C 723.015625 233.613281 723.800781 235.347656 724.585938 237.082031 C 727.230469 242.988281 729.703125 248.941406 731.894531 255.0625 C 732.199219 255.894531 732.199219 255.894531 732.507812 256.738281 C 733.527344 259.683594 733.859375 261.394531 733 264.378906 C 720.347656 264.789062 707.691406 265.097656 695.035156 265.285156 C 689.15625 265.375 683.28125 265.5 677.402344 265.699219 C 672.277344 265.875 667.152344 265.988281 662.023438 266.027344 C 659.308594 266.050781 656.601562 266.101562 653.890625 266.230469 C 637.472656 266.976562 637.472656 266.976562 632.578125 262.683594 C 629.214844 258.554688 626.917969 253.972656 624.746094 249.023438 C 623.257812 245.875 621.335938 243.207031 619.265625 240.488281 C 618.925781 240.03125 618.585938 239.574219 618.238281 239.101562 C 613.945312 233.367188 609.390625 227.886719 604.503906 222.742188 C 600.65625 218.578125 600.65625 218.578125 599.511719 217.28125 C 570.769531 185.136719 524.628906 164.765625 483.570312 163.566406 C 478.742188 163.484375 473.914062 163.496094 469.085938 163.5 C 467.441406 163.496094 465.800781 163.496094 464.160156 163.492188 C 459.65625 163.484375 455.160156 163.484375 450.664062 163.484375 C 445.804688 163.480469 440.945312 163.476562 436.089844 163.46875 C 428.222656 163.460938 420.351562 163.453125 412.488281 163.449219 C 399.199219 163.441406 385.914062 163.425781 372.625 163.40625 C 367.507812 163.398438 362.386719 163.390625 357.269531 163.386719 C 356.699219 163.382812 356.132812 163.382812 355.546875 163.382812 C 342.019531 163.363281 328.496094 163.347656 314.972656 163.332031 C 314.378906 163.332031 313.789062 163.332031 313.179688 163.332031 C 299.382812 163.316406 285.585938 163.300781 271.789062 163.289062 C 270.902344 163.289062 270.902344 163.289062 269.992188 163.289062 C 265.210938 163.285156 260.425781 163.28125 255.644531 163.277344 C 235.90625 163.265625 216.167969 163.242188 196.429688 163.210938 C 193.640625 163.203125 190.851562 163.199219 188.0625 163.195312 C 187.511719 163.195312 186.964844 163.195312 186.398438 163.191406 C 177.582031 163.179688 168.761719 163.175781 159.945312 163.175781 C 151.078125 163.171875 142.210938 163.164062 133.339844 163.144531 C 128.539062 163.132812 123.742188 163.128906 118.941406 163.132812 C 114.542969 163.136719 110.140625 163.128906 105.742188 163.113281 C 104.15625 163.109375 102.570312 163.109375 100.984375 163.113281 C 74.4375 163.191406 51.289062 154.570312 32.035156 134.464844 C 31.203125 133.644531 31.203125 133.644531 30.355469 132.808594 C 22.09375 124.421875 16.648438 113.871094 12.03125 102.820312 C 11.660156 101.960938 11.285156 101.101562 10.902344 100.214844 C 8.652344 94.539062 7.453125 88.773438 6.402344 82.730469 C 6.273438 81.976562 6.140625 81.21875 6.003906 80.441406 C 5.15625 75.144531 4.738281 69.890625 5.105469 64.511719 C 6.289062 63.234375 7.363281 63.574219 9.011719 63.574219 Z M 9.011719 63.574219 " fill-opacity="1" fill-rule="nonzero"/></g></svg>